<svg width="34" height="34" viewBox="0 0 34 34" fill="none" xmlns="http://www.w3.org/2000/svg">
<path d="M16.9997 33.6669C7.79912 33.6567 0.343112 26.2007 0.333008 17.0002V16.6669C0.516227 7.50774 8.05732 0.213453 17.2175 0.334993C26.3776 0.456533 33.7225 7.94834 33.6627 17.1091C33.6028 26.2698 26.1606 33.665 16.9997 33.6669ZM16.9997 3.66686C9.63588 3.66686 3.66634 9.6364 3.66634 17.0002C3.66634 24.364 9.63588 30.3335 16.9997 30.3335C24.3635 30.3335 30.333 24.364 30.333 17.0002C30.3247 9.63982 24.36 3.67513 16.9997 3.66686ZM14.583 25.3335L12.2263 22.9752L18.118 17.0835L12.2263 11.1919L14.583 8.83353L22.833 17.0835L14.5847 25.3335H14.583Z" fill="black"/>
</svg>
