<svg width="34" height="34" viewBox="0 0 34 34" fill="none" xmlns="http://www.w3.org/2000/svg">
<path d="M17.0002 33.6668C7.79542 33.6668 0.333496 26.2049 0.333496 17.0002C0.333496 7.79542 7.79542 0.333496 17.0002 0.333496C26.2049 0.333496 33.6668 7.79542 33.6668 17.0002C33.6567 26.2007 26.2007 33.6567 17.0002 33.6668ZM17.0002 3.66683C9.67583 3.66868 3.72426 9.57827 3.67056 16.9024C3.61686 24.2265 9.48114 30.2228 16.8047 30.332C24.1282 30.4413 30.1687 24.6226 30.3335 17.3002V20.2718V17.0002C30.3252 9.63979 24.3605 3.6751 17.0002 3.66683ZM19.4168 25.1668L11.1668 16.9168L19.4168 8.66683L21.7735 11.0235L15.8802 16.9168L21.7718 22.8102L19.4185 25.1668H19.4168Z" fill="black"/>
</svg>
