<svg width="20" height="20" viewBox="0 0 20 20" fill="none" xmlns="http://www.w3.org/2000/svg">
<path d="M11.876 20H8.12436C7.64006 20 7.22103 19.673 7.11739 19.214L6.69791 17.33C6.1383 17.0921 5.60768 16.7946 5.11582 16.443L3.22247 17.028C2.76072 17.1709 2.25877 16.9823 2.01657 16.575L0.136621 13.424C-0.10292 13.0165 -0.0203932 12.5025 0.335542 12.185L1.80426 10.885C1.73746 10.2961 1.73746 9.70189 1.80426 9.113L0.335542 7.816C-0.0209175 7.49837 -0.103477 6.98372 0.136621 6.576L2.01245 3.423C2.25465 3.0157 2.7566 2.82714 3.21834 2.97L5.1117 3.555C5.36325 3.37416 5.62511 3.20722 5.89604 3.055C6.15612 2.91269 6.42378 2.78385 6.69791 2.669L7.11842 0.787C7.22156 0.327969 7.64014 0.000494393 8.12436 0H11.876C12.3602 0.000494393 12.7788 0.327969 12.882 0.787L13.3066 2.67C13.596 2.79352 13.8778 2.93308 14.1507 3.088C14.4056 3.23078 14.652 3.38736 14.8887 3.557L16.7831 2.972C17.2445 2.82967 17.7458 3.01816 17.9879 3.425L19.8638 6.578C20.1033 6.98548 20.0208 7.49951 19.6648 7.817L18.1961 9.117C18.2629 9.70589 18.2629 10.3001 18.1961 10.889L19.6648 12.189C20.0208 12.5065 20.1033 13.0205 19.8638 13.428L17.9879 16.581C17.7458 16.9878 17.2445 17.1763 16.7831 17.034L14.8887 16.449C14.649 16.6203 14.3999 16.7789 14.1425 16.924C13.8723 17.0759 13.5936 17.2131 13.3076 17.335L12.882 19.214C12.7784 19.6726 12.3599 19.9996 11.876 20ZM9.99607 6C7.71916 6 5.87337 7.79086 5.87337 10C5.87337 12.2091 7.71916 14 9.99607 14C12.273 14 14.1188 12.2091 14.1188 10C14.1188 7.79086 12.273 6 9.99607 6Z" fill="white"/>
</svg>
