<svg width="20" height="20" viewBox="0 0 20 20" fill="none" xmlns="http://www.w3.org/2000/svg">
<path d="M10.0208 20C4.68033 19.9954 0.280151 15.8082 0.0127778 10.4764C-0.254595 5.14454 3.70464 0.538458 9.01792 0V4.05033C5.99971 4.5602 3.84671 7.25571 4.01744 10.3108C4.18817 13.3659 6.62811 15.8049 9.68435 15.9756C12.7406 16.1463 15.4371 13.9941 15.9472 10.977H19.999C19.4773 16.0966 15.1679 19.9931 10.0198 20H10.0208ZM20 8.97188H15.9482C15.5213 6.45115 13.5455 4.47648 11.0238 4.05033V0C15.7647 0.485219 19.5131 4.23177 19.999 8.97088L20 8.97188Z" fill="black"/>
</svg>
