<svg width="20" height="20" viewBox="0 0 20 20" fill="none" xmlns="http://www.w3.org/2000/svg">
<path d="M2.22222 20H0V18.9474C0.00489848 14.8798 3.48426 11.5836 7.77778 11.5789H12.2222C16.5157 11.5836 19.9951 14.8798 20 18.9474V20H17.7778V18.9474C17.7741 16.042 15.2889 13.6877 12.2222 13.6842H7.77778C4.71105 13.6877 2.2259 16.042 2.22222 18.9474V20ZM10 10.5263C6.93175 10.5263 4.44444 8.16992 4.44444 5.26316C4.44444 2.3564 6.93175 0 10 0C13.0682 0 15.5556 2.3564 15.5556 5.26316C15.5519 8.16848 13.0667 10.5228 10 10.5263ZM10 2.10526C8.15905 2.10526 6.66667 3.5191 6.66667 5.26316C6.66667 7.00722 8.15905 8.42105 10 8.42105C11.841 8.42105 13.3333 7.00722 13.3333 5.26316C13.3333 3.5191 11.841 2.10526 10 2.10526Z" fill="black"/>
</svg>
